<svg width="20" height="21" viewBox="0 0 20 21" fill="none" xmlns="http://www.w3.org/2000/svg">
<path d="M10 2.45729C12.6923 2.45729 12.9808 2.45729 14.0385 2.55345C15 2.55345 15.5769 2.74576 15.8654 2.93806C16.3462 3.13037 16.6346 3.32268 17.0192 3.70729C17.4038 4.09191 17.5962 4.38037 17.7885 4.86114C17.8846 5.24576 18.0769 5.72653 18.1731 6.68806C18.1731 7.74576 18.2692 8.03422 18.2692 10.7265C18.2692 13.4188 18.2692 13.7073 18.1731 14.765C18.1731 15.7265 17.9808 16.3034 17.7885 16.5919C17.5962 17.0727 17.4038 17.3611 17.0192 17.7458C16.6346 18.1304 16.3462 18.3227 15.8654 18.515C15.4808 18.6111 15 18.8034 14.0385 18.8996C13.0769 18.8996 12.6923 18.8996 10 18.8996C7.30769 18.8996 7.01923 18.8996 5.96154 18.8034C5 18.8034 4.42308 18.6111 4.13462 18.4188C3.65385 18.2265 3.36538 18.0342 2.98077 17.6496C2.59615 17.265 2.40385 16.9765 2.21154 16.4958C2.11538 16.1111 1.92308 15.6304 1.82692 14.6688C1.73077 13.6111 1.73077 13.3227 1.73077 10.6304C1.73077 7.93806 1.73077 7.6496 1.82692 6.59191C1.82692 5.63037 2.01923 5.05345 2.21154 4.76499C2.40385 4.28422 2.59615 3.99576 2.98077 3.61114C3.36538 3.22652 3.65385 3.03422 4.13462 2.84191C4.42308 2.74576 5 2.55345 5.96154 2.45729C7.01923 2.45729 7.30769 2.45729 10 2.45729ZM10 0.630371C7.30769 0.630371 6.92308 0.630371 5.86538 0.726525C4.80769 0.726525 4.13462 0.918833 3.46154 1.11114C2.78846 1.3996 2.21154 1.78422 1.73077 2.36114C1.15385 2.84191 0.769231 3.41883 0.480769 4.09191C0.288462 4.76499 0.0961538 5.43806 0.0961538 6.49576C0 7.55345 0 7.93806 0 10.6304C0 13.3227 0 13.7073 0.0961538 14.765C0.192308 15.8227 0.288462 16.5919 0.576923 17.1688C0.865385 17.8419 1.15385 18.4188 1.73077 18.8996C2.30769 19.4765 2.88462 19.765 3.46154 20.0534C4.13462 20.3419 4.80769 20.4381 5.86538 20.5342C6.92308 20.6304 7.30769 20.6304 10 20.6304C12.6923 20.6304 13.0769 20.6304 14.1346 20.5342C15.1923 20.4381 15.9615 20.3419 16.5385 20.0534C17.2115 19.765 17.7885 19.4765 18.2692 18.8996C18.8462 18.3227 19.1346 17.7458 19.4231 17.1688C19.7115 16.4958 19.8077 15.8227 19.9038 14.765C20 13.7073 20 13.3227 20 10.6304C20 7.93806 20 7.55345 19.9038 6.49576C19.8077 5.43806 19.7115 4.66883 19.4231 4.09191C19.1346 3.41883 18.8462 2.84191 18.2692 2.36114C17.6923 1.78422 17.1154 1.49576 16.5385 1.20729C15.8654 0.918833 15.1923 0.822679 14.1346 0.726525C13.0769 0.630371 12.7885 0.630371 10 0.630371Z" fill="white"/>
<path d="M10 5.53418C7.1154 5.53418 4.80771 7.84187 4.80771 10.7265C4.80771 13.6111 7.1154 15.9188 10 15.9188C12.8846 15.9188 15.1923 13.6111 15.1923 10.7265C15.1923 7.84187 12.8846 5.53418 10 5.53418ZM10 13.9957C8.17309 13.9957 6.63463 12.4573 6.63463 10.6303C6.73079 8.80341 8.17309 7.3611 10 7.3611C11.8269 7.3611 13.3654 8.89956 13.3654 10.7265C13.3654 12.5534 11.9231 13.9957 10 13.9957Z" fill="white"/>
<path d="M16.6346 5.34204C16.6346 6.01512 16.0577 6.59204 15.3846 6.59204C14.7115 6.59204 14.1346 6.01512 14.1346 5.34204C14.1346 4.66896 14.7115 4.09204 15.3846 4.09204C16.0577 4.09204 16.6346 4.66896 16.6346 5.34204Z" fill="white"/>
</svg>
