<svg width="149" height="197" viewBox="0 0 149 197" fill="none" xmlns="http://www.w3.org/2000/svg">
<path d="M68.6108 101.674C60.8052 100.926 52.903 98.1234 46.115 93.6942C40.4268 89.9845 39.1431 88.457 39.1431 85.4128C39.1431 79.2971 45.8676 68.5839 57.3735 56.3738C63.906 49.4373 73.0071 41.3114 73.9904 41.5304C75.9053 41.9579 91.2033 56.8802 96.9314 63.9062C105.988 75.0116 110.15 84.1079 108.035 88.1626C106.427 91.2446 96.4498 97.2696 89.1211 99.5837C83.0797 101.492 75.1457 102.299 68.6108 101.674ZM31.46 79.0545C26.7329 71.8024 24.3445 64.6634 23.1928 54.3376C22.8112 50.9282 22.9455 48.9792 24.056 41.9791C25.4374 33.2643 30.4037 23.1717 36.3744 16.9654C38.9159 14.3274 39.142 14.2567 42.2416 15.3049C45.9984 16.5767 50.0142 19.3513 56.2441 24.9853L59.8831 28.2757L57.8928 30.7135C48.674 42.0309 38.9441 58.0826 35.2816 68.0103C33.2913 73.4041 32.4905 78.8214 33.3502 81.0766C33.9272 82.6005 33.3973 82.0329 31.4541 79.0581L31.46 79.0545ZM114.43 80.2876C114.898 78.0076 114.307 73.8221 112.923 69.599C109.926 60.4544 99.9051 43.4429 90.7039 31.8759L87.8068 28.2345L90.9418 25.3575C95.033 21.6007 97.8736 19.3513 100.94 17.44C103.358 15.9326 106.814 14.5983 108.301 14.5983C109.216 14.5983 112.441 17.9546 115.044 21.6054C119.076 27.2582 122.042 34.124 123.544 41.2607C124.516 45.8772 124.597 55.7461 123.701 60.3508C122.959 64.1287 121.405 69.0255 119.897 72.3477C118.755 74.8361 115.94 79.6704 114.704 81.2438C114.068 82.0529 114.068 82.0517 114.421 80.3064L114.43 80.2876ZM69.447 12.8718C65.2003 10.7167 58.6501 8.40253 55.0323 7.77836C53.7651 7.56049 51.6017 7.43684 50.2274 7.5075C47.2408 7.65824 47.3739 7.50279 52.1623 5.24048C56.1428 3.35974 59.4639 2.25391 63.9743 1.30706C69.0442 0.24127 78.5774 0.229493 83.5672 1.28115C88.9551 2.41761 95.3016 4.77883 98.877 6.98108L99.9416 7.63351L97.5038 7.51103C92.6565 7.26608 85.5928 9.22454 78.0086 12.913C75.7216 14.0271 73.7337 14.915 73.5877 14.8915C73.4428 14.8632 71.5785 13.9552 69.4423 12.8718H69.447Z" fill="white"/>
<path d="M37.2191 163.501H30.3915L18.6512 147.284L6.82767 163.501H0L15.1541 142.626L1.24896 123.415H8.07664L18.6512 137.969L29.2258 123.415H36.0534L22.065 142.626L37.2191 163.501ZM72.6897 152.107C72.6897 155.6 71.524 158.428 69.1926 160.424C66.8612 162.42 63.5307 163.501 59.2009 163.501H40.4665V145.62H31.4739L35.2208 140.464H40.4665V123.415H58.4515C62.5315 123.415 65.6123 124.413 67.7772 126.326C69.942 128.239 71.0245 130.817 71.0245 133.894C71.0245 137.72 69.2759 140.714 65.7788 142.626C68.0269 143.458 69.6922 144.789 70.8579 146.369C72.1069 147.949 72.6897 149.945 72.6897 152.107ZM46.5447 140.547H58.0352C60.3666 140.547 62.1152 140.048 63.2809 138.967C64.4466 137.969 65.0294 136.389 65.0294 134.31C65.0294 132.563 64.4466 131.149 63.1976 130.151C62.0319 129.153 60.2834 128.654 58.0352 128.654H46.5447V140.547ZM66.5282 151.941C66.5282 149.862 65.8621 148.199 64.6131 147.201C63.3641 146.119 61.4491 145.62 58.9511 145.62H46.5447V158.179H58.8679C61.2825 158.179 63.1976 157.596 64.5298 156.598C65.8621 155.517 66.5282 153.937 66.5282 151.941ZM113.989 143.458C113.989 146.535 113.573 149.446 112.657 151.941C111.741 154.436 110.408 156.682 108.66 158.594C106.828 160.507 104.746 162.004 102.415 162.919C100.084 163.917 97.4192 164.333 94.4217 164.333C91.5075 164.333 88.7598 163.834 86.4284 162.919C84.097 161.921 82.0154 160.507 80.1835 158.594C78.3517 156.682 77.0195 154.436 76.1036 151.941C75.1877 149.446 74.7714 146.535 74.7714 143.458C74.7714 140.381 75.1877 137.47 76.1036 134.975C77.0195 132.48 78.3517 130.151 80.1835 128.239C81.9321 126.326 84.0137 124.912 86.4284 123.914C88.7598 122.999 91.5075 122.5 94.4217 122.5C97.336 122.5 100 122.999 102.415 123.914C104.746 124.829 106.911 126.326 108.66 128.239C110.408 130.151 111.824 132.48 112.657 134.975C113.489 137.47 113.989 140.298 113.989 143.458ZM81.0994 143.458C81.0994 148.199 82.3484 151.941 84.7631 154.686C87.1777 157.43 90.3418 158.844 94.4217 158.844C98.4184 158.844 101.666 157.43 104.08 154.686C106.495 151.941 107.661 148.199 107.661 143.458C107.661 138.718 106.495 134.892 104.08 132.147C101.666 129.403 98.4184 127.989 94.4217 127.989C90.425 127.989 87.1777 129.403 84.7631 132.147C82.3484 134.975 81.0994 138.718 81.0994 143.458ZM133.306 142.626L147.295 123.415H140.467L129.892 137.969L119.318 123.415H112.49L126.478 142.626L111.324 163.501H118.152L129.892 147.284L141.716 163.501H148.544L133.306 142.626Z" fill="white"/>
<path d="M37.5979 191.645C36.6438 191.645 35.7198 191.5 34.8261 191.21C33.9445 190.908 33.25 190.522 32.7428 190.051L33.4131 188.638C33.8962 189.072 34.5121 189.429 35.2609 189.707C36.0218 189.972 36.8008 190.105 37.5979 190.105C38.6486 190.105 39.4337 189.93 39.953 189.58C40.4723 189.217 40.732 188.74 40.732 188.149C40.732 187.714 40.587 187.363 40.2972 187.098C40.0194 186.82 39.6692 186.609 39.2465 186.464C38.8358 186.319 38.2501 186.156 37.4892 185.975C36.5351 185.745 35.7621 185.516 35.1703 185.286C34.5906 185.057 34.0894 184.706 33.6667 184.235C33.2561 183.752 33.0507 183.106 33.0507 182.297C33.0507 181.621 33.2259 181.011 33.5761 180.467C33.9384 179.924 34.4819 179.489 35.2066 179.163C35.9312 178.837 36.831 178.674 37.9059 178.674C38.6547 178.674 39.3914 178.77 40.116 178.964C40.8407 179.157 41.4627 179.435 41.982 179.797L41.3842 181.246C40.8528 180.908 40.2851 180.654 39.6812 180.485C39.0774 180.304 38.4856 180.214 37.9059 180.214C36.8793 180.214 36.1063 180.401 35.587 180.775C35.0797 181.15 34.8261 181.633 34.8261 182.225C34.8261 182.659 34.971 183.016 35.2609 183.293C35.5508 183.559 35.907 183.77 36.3298 183.927C36.7645 184.072 37.3503 184.229 38.087 184.398C39.0411 184.628 39.8081 184.857 40.3878 185.087C40.9675 185.316 41.4627 185.667 41.8733 186.138C42.296 186.609 42.5074 187.243 42.5074 188.04C42.5074 188.704 42.3262 189.314 41.9639 189.87C41.6016 190.413 41.052 190.848 40.3153 191.174C39.5786 191.488 38.6728 191.645 37.5979 191.645ZM54.357 189.924V191.5H45.154V178.819H54.1034V180.395H46.9656V184.29H53.3244V185.83H46.9656V189.924H54.357ZM65.7688 191.5L63.0332 187.605C62.6951 187.629 62.4294 187.641 62.2361 187.641H59.102V191.5H57.2904V178.819H62.2361C63.8786 178.819 65.1709 179.211 66.113 179.996C67.055 180.781 67.526 181.862 67.526 183.239C67.526 184.217 67.2845 185.051 66.8014 185.739C66.3183 186.427 65.6299 186.929 64.7361 187.243L67.7434 191.5H65.7688ZM62.1818 186.101C63.3291 186.101 64.2047 185.854 64.8086 185.359C65.4125 184.863 65.7144 184.157 65.7144 183.239C65.7144 182.321 65.4125 181.621 64.8086 181.138C64.2047 180.642 63.3291 180.395 62.1818 180.395H59.102V186.101H62.1818ZM70.4529 178.819H72.2645V191.5H70.4529V178.819ZM85.2641 189.924V191.5H76.0611V178.819H85.0105V180.395H77.8727V184.29H84.2315V185.83H77.8727V189.924H85.2641ZM91.8932 191.645C90.9391 191.645 90.0152 191.5 89.1215 191.21C88.2398 190.908 87.5453 190.522 87.0381 190.051L87.7084 188.638C88.1915 189.072 88.8074 189.429 89.5562 189.707C90.3171 189.972 91.0961 190.105 91.8932 190.105C92.944 190.105 93.729 189.93 94.2483 189.58C94.7676 189.217 95.0273 188.74 95.0273 188.149C95.0273 187.714 94.8824 187.363 94.5925 187.098C94.3147 186.82 93.9645 186.609 93.5418 186.464C93.1312 186.319 92.5454 186.156 91.7845 185.975C90.8304 185.745 90.0575 185.516 89.4657 185.286C88.8859 185.057 88.3847 184.706 87.962 184.235C87.5514 183.752 87.3461 183.106 87.3461 182.297C87.3461 181.621 87.5212 181.011 87.8714 180.467C88.2338 179.924 88.7772 179.489 89.5019 179.163C90.2265 178.837 91.1263 178.674 92.2012 178.674C92.95 178.674 93.6867 178.77 94.4114 178.964C95.136 179.157 95.758 179.435 96.2773 179.797L95.6795 181.246C95.1481 180.908 94.5804 180.654 93.9766 180.485C93.3727 180.304 92.7809 180.214 92.2012 180.214C91.1746 180.214 90.4017 180.401 89.8823 180.775C89.3751 181.15 89.1215 181.633 89.1215 182.225C89.1215 182.659 89.2664 183.016 89.5562 183.293C89.8461 183.559 90.2024 183.77 90.6251 183.927C91.0599 184.072 91.6456 184.229 92.3824 184.398C93.3365 184.628 94.1034 184.857 94.6831 185.087C95.2628 185.316 95.758 185.667 96.1686 186.138C96.5913 186.609 96.8027 187.243 96.8027 188.04C96.8027 188.704 96.6215 189.314 96.2592 189.87C95.8969 190.413 95.3474 190.848 94.6106 191.174C93.8739 191.488 92.9681 191.645 91.8932 191.645ZM112.286 191.5L108.481 186.264L104.731 191.5H102.648L107.412 184.996L102.938 178.819H105.003L108.554 183.692L112.068 178.819H114.043L109.568 184.942L114.369 191.5H112.286Z" fill="white"/>
</svg>
