<svg width="20" height="21" viewBox="0 0 20 21" fill="none" xmlns="http://www.w3.org/2000/svg">
<g clip-path="url(#clip0_2_120)">
<path d="M10.4549 0.647247C11.5847 0.630371 12.7081 0.640372 13.8301 0.630371C13.8981 1.90606 14.3733 3.20551 15.3406 4.10743C16.3059 5.03186 17.6714 5.455 19 5.59814V8.95394C17.7549 8.91456 16.5041 8.66455 15.3743 8.14702C14.8822 7.93201 14.4238 7.65512 13.9751 7.37198C13.9693 9.80711 13.9855 12.2391 13.9589 14.6642C13.8916 15.8293 13.4934 16.9887 12.7916 17.9488C11.6624 19.547 9.70258 20.5889 7.68965 20.6214C6.45496 20.6896 5.22156 20.3645 4.16945 19.7658C2.42586 18.7732 1.19894 16.9562 1.02024 15.0061C0.99952 14.5892 0.992398 14.173 1.00988 13.7661C1.16527 12.1804 1.97782 10.6634 3.23906 9.63148C4.66863 8.42954 6.67121 7.85701 8.54623 8.19577C8.56371 9.43021 8.51256 10.6634 8.51256 11.8978C7.65598 11.6303 6.65502 11.7053 5.90656 12.2072C5.36011 12.5491 4.9451 13.0729 4.72885 13.6654C4.55015 14.088 4.6013 14.5574 4.61166 15.0061C4.8169 16.3737 6.17914 17.5231 7.63332 17.3988C8.59738 17.3888 9.52129 16.8487 10.0237 16.0581C10.1862 15.7812 10.3682 15.498 10.3779 15.1724C10.4627 13.6817 10.429 12.1972 10.4394 10.7065C10.4465 7.34698 10.429 3.9968 10.4556 0.647872L10.4549 0.647247Z" fill="white"/>
</g>
<defs>
<clipPath id="clip0_2_120">
<rect width="20" height="20" fill="white" transform="translate(0 0.630371)"/>
</clipPath>
</defs>
</svg>
