<svg width="20" height="21" viewBox="0 0 20 21" fill="none" xmlns="http://www.w3.org/2000/svg">
<path d="M0 16.448C1.7734 17.6302 3.94089 18.3199 6.30542 18.3199C13.8916 18.3199 18.2266 11.9159 17.931 6.10313C18.7192 5.512 19.4089 4.82234 20 4.03416C19.3103 4.32973 18.5222 4.6253 17.6355 4.72382C18.5222 4.23121 19.1133 3.44303 19.4089 2.45781C18.6207 2.95042 17.734 3.24599 16.8473 3.44303C16.0591 2.55633 14.9754 2.06372 13.7931 2.06372C11.2315 2.06372 9.26108 4.52677 9.85222 7.08835C6.40394 6.89131 3.44828 5.31495 1.37931 2.8519C0.295566 4.6253 0.788177 7.08835 2.6601 8.27062C1.97044 8.27062 1.37931 8.07357 0.788177 7.77801C0.788177 9.64993 2.06897 11.4233 4.03941 11.8174C3.44828 12.0145 2.85714 12.0145 2.16749 11.9159C2.6601 13.5908 4.23645 14.7731 6.00985 14.7731C4.33498 16.1524 2.16749 16.7435 0 16.448Z" fill="white"/>
</svg>
