<svg width="124" height="44" viewBox="0 0 124 44" fill="none" xmlns="http://www.w3.org/2000/svg">
<path d="M19.4624 43.1716C16.1317 42.8525 12.7598 41.6565 9.86328 39.7665C7.43612 38.1836 6.88837 37.5318 6.88837 36.2328C6.88837 33.6232 9.75776 29.0518 14.6674 23.8417C17.4548 20.8818 21.3383 17.4144 21.7579 17.5079C22.575 17.6903 29.1027 24.0577 31.547 27.0558C35.4113 31.7945 37.1872 35.676 36.2847 37.4062C35.5988 38.7212 31.3414 41.2921 28.2143 42.2796C25.6363 43.0937 22.2509 43.4384 19.4624 43.1716ZM3.60994 33.5197C1.59283 30.4252 0.573722 27.3789 0.0822582 22.9728C-0.0805579 21.518 -0.0232708 20.6863 0.450604 17.6994C1.04006 13.9807 3.15918 9.67414 5.70695 7.02587C6.79139 5.90023 6.88787 5.87008 8.2105 6.31732C9.81354 6.86004 11.5271 8.04397 14.1854 10.448L15.7382 11.8521L14.889 12.8923C10.9553 17.7215 6.80345 24.5708 5.24061 28.807C4.39136 31.1086 4.04964 33.4202 4.41648 34.3825C4.66272 35.0328 4.43658 34.7905 3.60743 33.5212L3.60994 33.5197ZM39.0139 34.0458C39.2134 33.0729 38.9611 31.287 38.3707 29.4849C37.0918 25.5829 32.8158 18.324 28.8897 13.3883L27.6535 11.8345L28.9912 10.6068C30.7369 9.00378 31.949 8.04397 33.2575 7.22838C34.2892 6.58516 35.7641 6.01581 36.3983 6.01581C36.7887 6.01581 38.1651 7.44798 39.2757 9.00579C40.9963 11.4179 42.2617 14.3476 42.9029 17.3928C43.3175 19.3627 43.3521 23.5738 42.9697 25.5387C42.6531 27.1507 41.9898 29.2402 41.3466 30.6578C40.8591 31.7196 39.6581 33.7825 39.1305 34.4539C38.8591 34.7991 38.8591 34.7986 39.0099 34.0538L39.0139 34.0458ZM19.8192 5.27911C18.0071 4.3595 15.2121 3.37205 13.6684 3.10572C13.1276 3.01275 12.2045 2.95999 11.6181 2.99014C10.3437 3.05446 10.4005 2.98813 12.4437 2.02279C14.1422 1.22027 15.5593 0.748403 17.484 0.344378C19.6473 -0.110402 23.7152 -0.115427 25.8444 0.333322C28.1434 0.818253 30.8515 1.8258 32.3771 2.76551L32.8314 3.04391L31.7912 2.99165C29.7228 2.88712 26.7087 3.72281 23.4725 5.2967C22.4966 5.77208 21.6484 6.15098 21.586 6.14093C21.5242 6.12887 20.7287 5.74143 19.8172 5.27911H19.8192Z" fill="white"/>
<path d="M75.8152 28.4618H72.9018L67.8922 21.5417L62.847 28.4618H59.9336L66.3999 19.5544L60.4665 11.3567H63.3799L67.8922 17.5671L72.4044 11.3567H75.3178L69.3489 19.5544L75.8152 28.4618ZM90.9507 23.6C90.9507 25.0904 90.4533 26.297 89.4585 27.1487C88.4637 28.0004 87.0425 28.4618 85.195 28.4618H77.2009V20.8319H73.3637L74.9625 18.6317H77.2009V11.3567H84.8752C86.6161 11.3567 87.9307 11.7826 88.8545 12.5988C89.7783 13.415 90.2401 14.5151 90.2401 15.8282C90.2401 17.4606 89.494 18.7381 88.0018 19.5544C88.9611 19.9092 89.6717 20.477 90.1691 21.1513C90.702 21.8256 90.9507 22.6773 90.9507 23.6ZM79.7945 18.6672H84.6976C85.6924 18.6672 86.4385 18.4542 86.9359 17.9929C87.4333 17.5671 87.682 16.8928 87.682 16.0056C87.682 15.2604 87.4333 14.6571 86.9004 14.2312C86.403 13.8054 85.6568 13.5924 84.6976 13.5924H79.7945V18.6672ZM88.3216 23.529C88.3216 22.6418 88.0373 21.932 87.5044 21.5062C86.9714 21.0448 86.1543 20.8319 85.0884 20.8319H79.7945V26.1906H85.0529C86.0832 26.1906 86.9004 25.9422 87.4688 25.5163C88.0373 25.055 88.3216 24.3807 88.3216 23.529ZM108.573 19.9092C108.573 21.2223 108.396 22.4644 108.005 23.529C107.614 24.5936 107.046 25.5518 106.299 26.368C105.518 27.1842 104.63 27.823 103.635 28.2134C102.64 28.6392 101.503 28.8167 100.224 28.8167C98.9804 28.8167 97.8079 28.6037 96.8131 28.2134C95.8182 27.7875 94.93 27.1842 94.1484 26.368C93.3667 25.5518 92.7983 24.5936 92.4074 23.529C92.0166 22.4644 91.839 21.2223 91.839 19.9092C91.839 18.5962 92.0166 17.3541 92.4074 16.2895C92.7983 15.2249 93.3667 14.2312 94.1484 13.415C94.8945 12.5988 95.7827 11.9955 96.8131 11.5696C97.8079 11.1793 98.9804 10.9663 100.224 10.9663C101.467 10.9663 102.604 11.1793 103.635 11.5696C104.63 11.96 105.553 12.5988 106.299 13.415C107.046 14.2312 107.65 15.2249 108.005 16.2895C108.36 17.3541 108.573 18.5607 108.573 19.9092ZM94.5392 19.9092C94.5392 21.932 95.0721 23.529 96.1025 24.7001C97.1328 25.8712 98.4829 26.4745 100.224 26.4745C101.929 26.4745 103.315 25.8712 104.345 24.7001C105.376 23.529 105.873 21.932 105.873 19.9092C105.873 17.8864 105.376 16.254 104.345 15.0829C103.315 13.9118 101.929 13.3085 100.224 13.3085C98.5185 13.3085 97.1328 13.9118 96.1025 15.0829C95.0721 16.2895 94.5392 17.8864 94.5392 19.9092ZM116.816 19.5544L122.785 11.3567H119.872L115.359 17.5671L110.847 11.3567H107.934L113.903 19.5544L107.436 28.4618H110.35L115.359 21.5417L120.405 28.4618H123.318L116.816 19.5544Z" fill="white"/>
</svg>
